REM DIRINDEX 1\2,1\3,1\4,1\5
REM DIRNAME folder01,folder02,folder03,folder04,folder05
TITLE ""
FILE "CD1Track08.mp3" MP3
  TRACK 01 AUDIO
    TITLE "5:cjc156_0738"
    INDEX 01 00:00:00
  TRACK 02 AUDIO
    TITLE "0:"
    INDEX 01 00:01:17
  TRACK 03 AUDIO
    TITLE "2:cjc156_0739"
    INDEX 01 00:02:24
  TRACK 04 AUDIO
    TITLE "3:cjc156_0740"
    INDEX 01 00:04:48
  TRACK 05 AUDIO
    TITLE "2:cjc156_0741"
    INDEX 01 00:07:07
  TRACK 06 AUDIO
    TITLE "3:cjc156_0742"
    INDEX 01 00:09:22
  TRACK 07 AUDIO
    TITLE "2:cjc156_0743"
    INDEX 01 00:11:46
  TRACK 08 AUDIO
    TITLE "3:cjc156_0744"
    INDEX 01 00:13:35
  TRACK 09 AUDIO
    TITLE "2:cjc156_0745"
    INDEX 01 00:15:27
  TRACK 10 AUDIO
    TITLE "3:cjc156_0746"
    INDEX 01 00:17:47
  TRACK 11 AUDIO
    TITLE "2:cjc156_0747"
    INDEX 01 00:19:71
  TRACK 12 AUDIO
    TITLE "3:cjc156_0748"
    INDEX 01 00:21:39
  TRACK 13 AUDIO
    TITLE "2:cjc156_0749"
    INDEX 01 00:23:16
  TRACK 14 AUDIO
    TITLE "3:cjc156_0750"
    INDEX 01 00:25:11
  TRACK 15 AUDIO
    TITLE "2:cjc156_0751"
    INDEX 01 00:27:14
  TRACK 16 AUDIO
    TITLE "3:cjc156_0752"
    INDEX 01 00:29:33
  TRACK 17 AUDIO
    TITLE "2:cjc156_0753"
    INDEX 01 00:31:57
  TRACK 18 AUDIO
    TITLE "3:cjc156_0754"
    INDEX 01 00:33:15
  TRACK 19 AUDIO
    TITLE "2:cjc156_0755"
    INDEX 01 00:34:57
  TRACK 20 AUDIO
    TITLE "3:cjc156_0756"
    INDEX 01 00:36:56
  TRACK 21 AUDIO
    TITLE "2:cjc156_0757"
    INDEX 01 00:38:73
  TRACK 22 AUDIO
    TITLE "3:cjc156_0758"
    INDEX 01 00:41:10
  TRACK 23 AUDIO
    TITLE "2:cjc156_0759"
    INDEX 01 00:43:35
  TRACK 24 AUDIO
    TITLE "3:cjc156_0760"
    INDEX 01 00:46:70
  TRACK 25 AUDIO
    TITLE "2:cjc156_0761"
    INDEX 01 00:50:35
  TRACK 26 AUDIO
    TITLE "3:cjc156_0762"
    INDEX 01 00:51:65
  TRACK 27 AUDIO
    TITLE "2:cjc156_0763"
    INDEX 01 00:53:23
  TRACK 28 AUDIO
    TITLE "3:cjc156_0764"
    INDEX 01 00:54:48
  TRACK 29 AUDIO
    TITLE "2:cjc156_0765"
    INDEX 01 00:56:04
  TRACK 30 AUDIO
    TITLE "3:cjc156_0766"
    INDEX 01 00:58:62
  TRACK 31 AUDIO
    TITLE "2:cjc156_0767"
    INDEX 01 01:01:52
  TRACK 32 AUDIO
    TITLE "3:cjc156_0768"
    INDEX 01 01:03:27
  TRACK 33 AUDIO
    TITLE "2:cjc156_0769"
    INDEX 01 01:05:13
  TRACK 34 AUDIO
    TITLE "3:cjc156_0770"
    INDEX 01 01:06:55
  TRACK 35 AUDIO
    TITLE "2:cjc156_0771"
    INDEX 01 01:08:31
  TRACK 36 AUDIO
    TITLE "3:cjc156_0772"
    INDEX 01 01:10:37
  TRACK 37 AUDIO
    TITLE "2:cjc156_0773"
    INDEX 01 01:12:54
  TRACK 38 AUDIO
    TITLE "3:cjc156_0774"
    INDEX 01 01:14:72
  TRACK 39 AUDIO
    TITLE "2:cjc156_0775"
    INDEX 01 01:17:28
  TRACK 40 AUDIO
    TITLE "3:cjc156_0776"
    INDEX 01 01:18:62
  TRACK 41 AUDIO
    TITLE "2:cjc156_0777"
    INDEX 01 01:20:26
  TRACK 42 AUDIO
    TITLE "3:cjc156_0778"
    INDEX 01 01:21:70
  TRACK 43 AUDIO
    TITLE "2:cjc156_0779"
    INDEX 01 01:23:42
  TRACK 44 AUDIO
    TITLE "3:cjc156_0780"
    INDEX 01 01:25:08
  TRACK 45 AUDIO
    TITLE "2:cjc156_0781"
    INDEX 01 01:26:60
  TRACK 46 AUDIO
    TITLE "3:cjc156_0782"
    INDEX 01 01:28:72
  TRACK 47 AUDIO
    TITLE "2:cjc156_0783"
    INDEX 01 01:31:24
  TRACK 48 AUDIO
    TITLE "3:cjc156_0784"
    INDEX 01 01:33:62
  TRACK 49 AUDIO
    TITLE "2:cjc156_0785"
    INDEX 01 01:36:35
  TRACK 50 AUDIO
    TITLE "3:cjc156_0786"
    INDEX 01 01:37:60
  TRACK 51 AUDIO
    TITLE "2:cjc156_0787"
    INDEX 01 01:39:25
  TRACK 52 AUDIO
    TITLE "3:cjc156_0788"
    INDEX 01 01:41:40
  TRACK 53 AUDIO
    TITLE "2:cjc156_0789"
    INDEX 01 01:43:64
  TRACK 54 AUDIO
    TITLE "3:cjc156_0790"
    INDEX 01 01:45:44
  TRACK 55 AUDIO
    TITLE "2:cjc156_0791"
    INDEX 01 01:47:33
  TRACK 56 AUDIO
    TITLE "3:cjc156_0792"
    INDEX 01 01:49:22
  TRACK 57 AUDIO
    TITLE "2:cjc156_0793"
    INDEX 01 01:51:19
  TRACK 58 AUDIO
    TITLE "3:cjc156_0794"
    INDEX 01 01:54:05
  TRACK 59 AUDIO
    TITLE "2:cjc156_0795"
    INDEX 01 01:57:00
  TRACK 60 AUDIO
    TITLE "3:cjc156_0796"
    INDEX 01 01:59:53
  TRACK 61 AUDIO
    TITLE "2:cjc156_0797"
    INDEX 01 02:02:42
  TRACK 62 AUDIO
    TITLE "3:cjc156_0798"
    INDEX 01 02:04:13
  TRACK 63 AUDIO
    TITLE "2:cjc156_0799"
    INDEX 01 02:05:74
  TRACK 64 AUDIO
    TITLE "3:cjc156_0800"
    INDEX 01 02:07:26
  TRACK 65 AUDIO
    TITLE "2:cjc156_0801"
    INDEX 01 02:08:58
  TRACK 66 AUDIO
    TITLE "3:cjc156_0802"
    INDEX 01 02:11:08
  TRACK 67 AUDIO
    TITLE "2:cjc156_0803"
    INDEX 01 02:13:40
  TRACK 68 AUDIO
    TITLE "3:cjc156_0804"
    INDEX 01 02:15:02
  TRACK 69 AUDIO
    TITLE "2:cjc156_0805"
    INDEX 01 02:16:42
  TRACK 70 AUDIO
    TITLE "3:cjc156_0806"
    INDEX 01 02:18:51
  TRACK 71 AUDIO
    TITLE "2:cjc156_0807"
    INDEX 01 02:20:71
  TRACK 72 AUDIO
    TITLE "3:cjc156_0808"
    INDEX 01 02:22:37
  TRACK 73 AUDIO
    TITLE "2:cjc156_0809"
    INDEX 01 02:24:14
  TRACK 74 AUDIO
    TITLE "3:cjc156_0810"
    INDEX 01 02:25:74
  TRACK 75 AUDIO
    TITLE "2:cjc156_0811"
    INDEX 01 02:27:69
  TRACK 76 AUDIO
    TITLE "3:cjc156_0812"
    INDEX 01 02:30:50
  TRACK 77 AUDIO
    TITLE "2:cjc156_0813"
    INDEX 01 02:33:37
  TRACK 78 AUDIO
    TITLE "3:cjc156_0814"
    INDEX 01 02:36:12
  TRACK 79 AUDIO
    TITLE "2:cjc156_0815"
    INDEX 01 02:38:69
  TRACK 80 AUDIO
    TITLE "3:cjc156_0816"
    INDEX 01 02:40:31
  TRACK 81 AUDIO
    TITLE "2:cjc156_0817"
    INDEX 01 02:42:00
  TRACK 82 AUDIO
    TITLE "3:cjc156_0818"
    INDEX 01 02:43:39
  TRACK 83 AUDIO
    TITLE "2:cjc156_0819"
    INDEX 01 02:45:14
  TRACK 84 AUDIO
    TITLE "3:cjc156_0820"
    INDEX 01 02:46:65
  TRACK 85 AUDIO
    TITLE "2:cjc156_0821"
    INDEX 01 02:48:52
  TRACK 86 AUDIO
    TITLE "3:cjc156_0822"
    INDEX 01 02:49:71
  TRACK 87 AUDIO
    TITLE "2:cjc156_0823"
    INDEX 01 02:51:23
  TRACK 88 AUDIO
    TITLE "3:cjc156_0824"
    INDEX 01 02:53:00
  TRACK 89 AUDIO
    TITLE "2:cjc156_0825"
    INDEX 01 02:54:62
  TRACK 90 AUDIO
    TITLE "3:cjc156_0826"
    INDEX 01 02:56:38
  TRACK 91 AUDIO
    TITLE "2:cjc156_0827"
    INDEX 01 02:58:25
  TRACK 92 AUDIO
    TITLE "3:cjc156_0828"
    INDEX 01 03:00:18
  TRACK 93 AUDIO
    TITLE "2:cjc156_0829"
    INDEX 01 03:02:21
  TRACK 94 AUDIO
    TITLE "3:cjc156_0830"
    INDEX 01 03:03:69
  TRACK 95 AUDIO
    TITLE "2:cjc156_0831"
    INDEX 01 03:05:54
  TRACK 96 AUDIO
    TITLE "3:cjc156_0832"
    INDEX 01 03:07:43
  TRACK 97 AUDIO
    TITLE "2:cjc156_0833"
    INDEX 01 03:09:44
  TRACK 98 AUDIO
    TITLE "3:cjc156_0834"
    INDEX 01 03:11:53
  TRACK 99 AUDIO
    TITLE "2:cjc156_0835"
    INDEX 01 03:13:71
  TRACK 100 AUDIO
    TITLE "3:cjc156_0836"
    INDEX 01 03:16:21
  TRACK 101 AUDIO
    TITLE "2:cjc156_0837"
    INDEX 01 03:18:55
  TRACK 102 AUDIO
    TITLE "3:cjc156_0838"
    INDEX 01 03:21:02
  TRACK 103 AUDIO
    TITLE "2:cjc156_0839"
    INDEX 01 03:23:39
  TRACK 104 AUDIO
    TITLE "3:cjc156_0840"
    INDEX 01 03:25:43
  TRACK 105 AUDIO
    TITLE "2:cjc156_0841"
    INDEX 01 03:27:60
  TRACK 106 AUDIO
    TITLE "3:cjc156_0842"
    INDEX 01 03:29:27
  TRACK 107 AUDIO
    TITLE "2:cjc156_0843"
    INDEX 01 03:31:03
  TRACK 108 AUDIO
    TITLE "3:cjc156_0844"
    INDEX 01 03:33:29
  TRACK 109 AUDIO
    TITLE "2:cjc156_0845"
    INDEX 01 03:35:67
  TRACK 110 AUDIO
    TITLE "3:cjc156_0846"
    INDEX 01 03:37:48
  TRACK 111 AUDIO
    TITLE "2:cjc156_0847"
    INDEX 01 03:39:39
  TRACK 112 AUDIO
    TITLE "3:cjc156_0848"
    INDEX 01 03:41:25
  TRACK 113 AUDIO
    TITLE "2:cjc156_0849"
    INDEX 01 03:43:18
  TRACK 114 AUDIO
    TITLE "3:cjc156_0850"
    INDEX 01 03:45:46
  TRACK 115 AUDIO
    TITLE "2:cjc156_0851"
    INDEX 01 03:48:09
  TRACK 116 AUDIO
    TITLE "3:cjc156_0852"
    INDEX 01 03:50:04
  TRACK 117 AUDIO
    TITLE "2:cjc156_0853"
    INDEX 01 03:52:07
  TRACK 118 AUDIO
    TITLE "3:cjc156_0854"
    INDEX 01 03:54:00
  TRACK 119 AUDIO
    TITLE "2:cjc156_0855"
    INDEX 01 03:56:07
  TRACK 120 AUDIO
    TITLE "3:cjc156_0856"
    INDEX 01 03:57:37
  TRACK 121 AUDIO
    TITLE "2:cjc156_0857"
    INDEX 01 03:59:09
  TRACK 122 AUDIO
    TITLE "3:cjc156_0858"
    INDEX 01 04:01:08
  TRACK 123 AUDIO
    TITLE "2:cjc156_0859"
    INDEX 01 04:03:22
  TRACK 124 AUDIO
    TITLE "3:cjc156_0860"
    INDEX 01 04:04:36
  TRACK 125 AUDIO
    TITLE "2:cjc156_0861"
    INDEX 01 04:05:57
  TRACK 126 AUDIO
    TITLE "3:cjc156_0862"
    INDEX 01 04:07:38
  TRACK 127 AUDIO
    TITLE "2:cjc156_0863"
    INDEX 01 04:09:33
  TRACK 128 AUDIO
    TITLE "3:cjc156_0864"
    INDEX 01 04:10:66
  TRACK 129 AUDIO
    TITLE "2:cjc156_0865"
    INDEX 01 04:12:37
  TRACK 130 AUDIO
    TITLE "3:cjc156_0866"
    INDEX 01 04:13:62
  TRACK 131 AUDIO
    TITLE "2:cjc156_0867"
    INDEX 01 04:15:24
  TRACK 132 AUDIO
    TITLE "3:cjc156_0868"
    INDEX 01 04:18:08
  TRACK 133 AUDIO
    TITLE "2:cjc156_0869"
    INDEX 01 04:21:09
  TRACK 134 AUDIO
    TITLE "3:cjc156_0870"
    INDEX 01 04:22:49
  TRACK 135 AUDIO
    TITLE "2:cjc156_0871"
    INDEX 01 04:24:23
  TRACK 136 AUDIO
    TITLE "3:cjc156_0872"
    INDEX 01 04:26:18
  TRACK 137 AUDIO
    TITLE "2:cjc156_0873"
    INDEX 01 04:28:20
  TRACK 138 AUDIO
    TITLE "3:cjc156_0874"
    INDEX 01 04:29:33
  TRACK 139 AUDIO
    TITLE "2:cjc156_0875"
    INDEX 01 04:30:53
  TRACK 140 AUDIO
    TITLE "3:cjc156_0876"
    INDEX 01 04:33:55
  TRACK 141 AUDIO
    TITLE "2:cjc156_0877"
    INDEX 01 04:36:67
  TRACK 142 AUDIO
    TITLE "3:cjc156_0878"
    INDEX 01 04:38:34
  TRACK 143 AUDIO
    TITLE "2:cjc156_0879"
    INDEX 01 04:40:10
  TRACK 144 AUDIO
    TITLE "3:cjc156_0880"
    INDEX 01 04:42:40
  TRACK 145 AUDIO
    TITLE "2:cjc156_0881"
    INDEX 01 04:45:07
  TRACK 146 AUDIO
    TITLE "3:cjc156_0882"
    INDEX 01 04:46:55
  TRACK 147 AUDIO
    TITLE "2:cjc156_0883"
    INDEX 01 04:48:41
  TRACK 148 AUDIO
    TITLE "3:cjc156_0884"
    INDEX 01 04:50:22
  TRACK 149 AUDIO
    TITLE "2:cjc156_0885"
    INDEX 01 04:52:11
  TRACK 150 AUDIO
    TITLE "3:cjc156_0886"
    INDEX 01 04:53:38
  TRACK 151 AUDIO
    TITLE "2:cjc156_0887"
    INDEX 01 04:55:00
  TRACK 152 AUDIO
    TITLE "3:cjc156_0888"
    INDEX 01 04:57:18
  TRACK 153 AUDIO
    TITLE "2:cjc156_0889"
    INDEX 01 04:59:50
  TRACK 154 AUDIO
    TITLE "3:cjc156_0890"
    INDEX 01 05:02:06
  TRACK 155 AUDIO
    TITLE "2:cjc156_0891"
    INDEX 01 05:04:44
  TRACK 156 AUDIO
    TITLE "3:cjc156_0892"
    INDEX 01 05:06:52
  TRACK 157 AUDIO
    TITLE "2:cjc156_0893"
    INDEX 01 05:08:73
  TRACK 158 AUDIO
    TITLE "3:cjc156_0894"
    INDEX 01 05:11:63
  TRACK 159 AUDIO
    TITLE "2:cjc156_0895"
    INDEX 01 05:14:64
  TRACK 160 AUDIO
    TITLE "3:cjc156_0896"
    INDEX 01 05:15:57
  TRACK 161 AUDIO
    TITLE "2:cjc156_0897"
    INDEX 01 05:16:59
  TRACK 162 AUDIO
    TITLE "3:cjc156_0898"
    INDEX 01 05:18:52
  TRACK 163 AUDIO
    TITLE "2:cjc156_0899"
    INDEX 01 05:20:47
  TRACK 164 AUDIO
    TITLE "3:cjc156_0900"
    INDEX 01 05:22:04
  TRACK 165 AUDIO
    TITLE "2:cjc156_0901"
    INDEX 01 05:23:47
  TRACK 166 AUDIO
    TITLE "3:cjc156_0902"
    INDEX 01 05:25:42
  TRACK 167 AUDIO
    TITLE "2:cjc156_0903"
    INDEX 01 05:27:49
  TRACK 168 AUDIO
    TITLE "3:cjc156_0904"
    INDEX 01 05:29:69
  TRACK 169 AUDIO
    TITLE "2:cjc156_0905"
    INDEX 01 05:32:24
  TRACK 170 AUDIO
    TITLE "3:cjc156_0906"
    INDEX 01 05:33:32
  TRACK 171 AUDIO
    TITLE "2:cjc156_0907"
    INDEX 01 05:34:43
  TRACK 172 AUDIO
    TITLE "3:cjc156_0908"
    INDEX 01 05:36:59
  TRACK 173 AUDIO
    TITLE "2:cjc156_0909"
    INDEX 01 05:39:09
  TRACK 174 AUDIO
    TITLE "3:cjc156_0910"
    INDEX 01 05:41:19
  TRACK 175 AUDIO
    TITLE "2:cjc156_0911"
    INDEX 01 05:43:42
  TRACK 176 AUDIO
    TITLE "3:cjc156_0912"
    INDEX 01 05:45:29
  TRACK 177 AUDIO
    TITLE "2:cjc156_0913"
    INDEX 01 05:47:30
  TRACK 178 AUDIO
    TITLE "3:cjc156_0914"
    INDEX 01 05:48:68
  TRACK 179 AUDIO
    TITLE "2:cjc156_0915"
    INDEX 01 05:50:42
  TRACK 180 AUDIO
    TITLE "3:cjc156_0916"
    INDEX 01 05:52:33
  TRACK 181 AUDIO
    TITLE "2:cjc156_0917"
    INDEX 01 05:54:36
  TRACK 182 AUDIO
    TITLE "3:cjc156_0918"
    INDEX 01 05:55:70
  TRACK 183 AUDIO
    TITLE "2:cjc156_0919"
    INDEX 01 05:57:40
  TRACK 184 AUDIO
    TITLE "3:cjc156_0920"
    INDEX 01 05:59:66
  TRACK 185 AUDIO
    TITLE "2:cjc156_0921"
    INDEX 01 06:02:29
  TRACK 186 AUDIO
    TITLE "3:cjc156_0922"
    INDEX 01 06:03:54
  TRACK 187 AUDIO
    TITLE "2:cjc156_0923"
    INDEX 01 06:05:16
  TRACK 188 AUDIO
    TITLE "3:cjc156_0924"
    INDEX 01 06:07:38
  TRACK 189 AUDIO
    TITLE "0:"
    INDEX 01 06:09:69
